<?xml version="1.0" standalone="no"?>
<svg viewBox="0 0 200 200" xmlns="http://www.w3.org/2000/svg">
  <path fill="#435589" d="M32.8,-49.4C44.1,-50.3,56.1,-44.8,60.3,-35.5C64.6,-26.2,61.3,-13.1,60.1,-0.7C58.9,11.7,59.9,23.4,57,35C54,46.6,47.1,58.1,36.9,56.9C26.8,55.8,13.4,42.1,-0.6,43.1C-14.6,44.1,-29.1,59.9,-42.1,62.7C-55.1,65.4,-66.5,55.2,-65.2,42.6C-64,30,-50.2,15,-50,0.1C-49.8,-14.7,-63.1,-29.4,-65.3,-43.8C-67.5,-58.1,-58.6,-72.1,-45.9,-70.3C-33.1,-68.6,-16.6,-51.2,-2.9,-46.2C10.7,-41.1,21.5,-48.5,32.8,-49.4Z" transform="translate(100 100)" />
</svg>
