<?xml version="1.0" standalone="no"?>
<svg viewBox="0 0 200 200" xmlns="http://www.w3.org/2000/svg">
  <path fill="#CCCCCC" d="M39.8,-70C52.5,-61.5,64.3,-52.8,71.8,-41C79.2,-29.3,82.3,-14.7,81.3,-0.6C80.3,13.5,75.3,27,68.8,40.4C62.3,53.8,54.4,67.1,42.6,74.4C30.9,81.8,15.5,83.2,2.4,78.9C-10.6,74.7,-21.2,64.8,-33.1,57.6C-45,50.4,-58.3,45.9,-69,36.7C-79.6,27.6,-87.6,13.8,-86.4,0.7C-85.1,-12.3,-74.6,-24.7,-66.3,-38C-58.1,-51.3,-52.1,-65.7,-41.5,-75.3C-30.8,-84.9,-15.4,-89.7,-0.9,-88.1C13.5,-86.5,27.1,-78.4,39.8,-70Z" transform="translate(100 100)" />
</svg>
