<?xml version="1.0" standalone="no"?>
<svg viewBox="0 0 200 200" xmlns="http://www.w3.org/2000/svg">
  <path fill="#D62828" d="M44,-74C56.6,-68.9,66.1,-56.3,69.3,-42.7C72.6,-29.1,69.7,-14.5,67.4,-1.3C65.2,11.9,63.5,23.8,58.3,34.1C53.1,44.4,44.4,53.1,34.1,60.5C23.8,67.9,11.9,74,-1.5,76.6C-14.9,79.2,-29.7,78.2,-40.1,70.8C-50.5,63.5,-56.4,49.7,-65.3,36.8C-74.3,24,-86.4,12,-86.2,0.1C-86,-11.8,-73.6,-23.6,-62.5,-32.7C-51.4,-41.8,-41.5,-48.3,-31.3,-54.8C-21.1,-61.3,-10.6,-67.8,2.6,-72.3C15.7,-76.7,31.4,-79.2,44,-74Z" transform="translate(100 100)" />
</svg>
