<?xml version="1.0" standalone="no"?>
<svg viewBox="0 0 200 200" xmlns="http://www.w3.org/2000/svg">
  <path fill="#D62828" d="M45,-70.6C58.3,-61.5,69,-49,77.3,-34.3C85.5,-19.6,91.4,-2.8,89.8,13.5C88.3,29.7,79.5,45.5,67.9,58.8C56.3,72.2,42,83.1,25.5,88.8C9.1,94.4,-9.4,94.8,-25.1,88.7C-40.8,82.7,-53.7,70.2,-65.2,56.7C-76.6,43.1,-86.6,28.5,-89.1,12.7C-91.6,-3.2,-86.6,-20.2,-79.5,-36.4C-72.3,-52.6,-62.9,-67.9,-49.3,-76.9C-35.7,-85.8,-17.8,-88.4,-1,-86.9C15.9,-85.4,31.7,-79.7,45,-70.6Z" transform="translate(100 100)" />
</svg>
