<svg width="24" height="24" viewBox="0 0 24 24" fill="none" xmlns="http://www.w3.org/2000/svg">
<path d="M22.7934 9.93274C21.9039 4.70693 17.3452 0.741241 11.86 0.741241C6.3747 0.741241 1.81601 4.70693 0.926514 9.93274L11.86 4.44749L22.7934 9.93274ZM0.926514 13.7872C1.81601 19.0131 6.3747 22.9787 11.86 22.9787C17.3452 22.9787 21.9039 19.0131 22.7934 13.7872L11.86 19.2725L0.926514 13.7872Z" fill="#699635"/>
<path d="M11.86 4.44751L0.926523 9.93276C0.815336 10.5628 0.741211 11.1929 0.741211 11.86C0.741211 12.5271 0.815336 13.1572 0.926523 13.7873L11.86 19.2725L22.7934 13.7873C22.9046 13.1572 22.9787 12.5271 22.9787 11.86C22.9787 11.1929 22.9046 10.5628 22.7934 9.93276L11.86 4.44751Z" fill="#FFE62E"/>
<path d="M9.63616 10.5258C8.45016 10.5258 7.33829 10.7852 6.3376 11.2299C6.30054 11.4523 6.30054 11.6376 6.30054 11.86C6.30054 14.9362 8.78372 17.4194 11.8599 17.4194C13.9354 17.4194 15.7515 16.2704 16.7151 14.6026C15.3438 12.1936 12.6753 10.5258 9.63616 10.5258Z" fill="#428BC1"/>
<path d="M17.3451 12.7495C17.3822 12.453 17.4193 12.1565 17.4193 11.86C17.4193 8.78382 14.9361 6.30063 11.8599 6.30063C9.6732 6.30063 7.78301 7.56075 6.85645 9.41388C7.74595 9.15444 8.67251 9.00619 9.63613 9.00619C12.7864 9.00619 15.5661 10.4887 17.3451 12.7495Z" fill="#428BC1"/>
<path d="M9.63621 9.0062C8.67258 9.0062 7.74602 9.15445 6.85652 9.41388C6.59708 9.96982 6.41177 10.5628 6.33765 11.2299C7.33833 10.7852 8.45021 10.5258 9.63621 10.5258C12.6753 10.5258 15.3438 12.1565 16.7151 14.5656C17.0487 14.0096 17.234 13.3796 17.3452 12.7495C15.5662 10.4887 12.7865 9.0062 9.63621 9.0062Z" fill="white"/>
<path d="M8.15383 12.2306C8.35852 12.2306 8.52445 12.0647 8.52445 11.86C8.52445 11.6553 8.35852 11.4894 8.15383 11.4894C7.94914 11.4894 7.7832 11.6553 7.7832 11.86C7.7832 12.0647 7.94914 12.2306 8.15383 12.2306Z" fill="white"/>
<path d="M9.63625 14.4544C9.84094 14.4544 10.0069 14.2885 10.0069 14.0838C10.0069 13.8791 9.84094 13.7131 9.63625 13.7131C9.43156 13.7131 9.26562 13.8791 9.26562 14.0838C9.26562 14.2885 9.43156 14.4544 9.63625 14.4544Z" fill="white"/>
<path d="M11.8599 14.4544C12.0646 14.4544 12.2305 14.2885 12.2305 14.0838C12.2305 13.8791 12.0646 13.7131 11.8599 13.7131C11.6552 13.7131 11.4893 13.8791 11.4893 14.0838C11.4893 14.2885 11.6552 14.4544 11.8599 14.4544Z" fill="white"/>
<path d="M11.8599 15.9369C12.0646 15.9369 12.2305 15.7709 12.2305 15.5662C12.2305 15.3616 12.0646 15.1956 11.8599 15.1956C11.6552 15.1956 11.4893 15.3616 11.4893 15.5662C11.4893 15.7709 11.6552 15.9369 11.8599 15.9369Z" fill="white"/>
<path d="M14.825 14.4544C15.0297 14.4544 15.1956 14.2885 15.1956 14.0838C15.1956 13.8791 15.0297 13.7131 14.825 13.7131C14.6203 13.7131 14.4543 13.8791 14.4543 14.0838C14.4543 14.2885 14.6203 14.4544 14.825 14.4544Z" fill="white"/>
<path d="M14.825 15.9369C15.0297 15.9369 15.1956 15.7709 15.1956 15.5662C15.1956 15.3616 15.0297 15.1956 14.825 15.1956C14.6203 15.1956 14.4543 15.3616 14.4543 15.5662C14.4543 15.7709 14.6203 15.9369 14.825 15.9369Z" fill="white"/>
<path d="M13.3425 15.1956C13.5472 15.1956 13.7132 15.0297 13.7132 14.825C13.7132 14.6203 13.5472 14.4544 13.3425 14.4544C13.1379 14.4544 12.9719 14.6203 12.9719 14.825C12.9719 15.0297 13.1379 15.1956 13.3425 15.1956Z" fill="white"/>
<path d="M8.15383 13.7131C8.35852 13.7131 8.52445 13.5472 8.52445 13.3425C8.52445 13.1378 8.35852 12.9719 8.15383 12.9719C7.94914 12.9719 7.7832 13.1378 7.7832 13.3425C7.7832 13.5472 7.94914 13.7131 8.15383 13.7131Z" fill="white"/>
</svg>
