<svg width="35" height="38" viewBox="0 0 35 38" fill="none" xmlns="http://www.w3.org/2000/svg">
<path d="M28.9324 13.4118H25.033V2.23529C25.033 1.00588 23.9294 0 22.5805 0H12.7707C11.4218 0 10.3182 1.00588 10.3182 2.23529V13.4118H6.41882C4.23613 13.4118 3.13253 15.8259 4.67758 17.2341L15.9344 27.4941C16.8908 28.3659 18.4359 28.3659 19.3923 27.4941L30.6491 17.2341C32.1942 15.8259 31.1151 13.4118 28.9324 13.4118ZM0.508392 35.7647C0.508392 36.9941 1.612 38 2.96085 38H32.3904C33.7392 38 34.8428 36.9941 34.8428 35.7647C34.8428 34.5353 33.7392 33.5294 32.3904 33.5294H2.96085C1.612 33.5294 0.508392 34.5353 0.508392 35.7647Z" fill="white"/>
</svg>
