<svg width="34" height="34" viewBox="0 0 34 34" fill="none" xmlns="http://www.w3.org/2000/svg">
<path d="M30.4788 33.97H3.54278C2.6498 33.97 1.79338 33.606 1.16196 32.9583C0.530519 32.3104 0.175781 31.4317 0.175781 30.5156V11.601C0.203766 11.0302 0.367325 10.4749 0.652231 9.9836C0.937137 9.49229 1.33474 9.07994 1.81046 8.78226L15.2784 0.491767C15.8015 0.169976 16.4 0 17.0099 0C17.6198 0 18.2183 0.169976 18.7414 0.491767L32.2094 8.78226C33.2212 9.40929 33.8424 10.532 33.8458 11.7445V30.5156C33.8458 31.4317 33.4911 32.3104 32.8596 32.9583C32.2282 33.606 31.3718 33.97 30.4788 33.97ZM3.54278 13.0157V30.5156H30.4788V13.0157L17.0108 22.2268L3.54278 13.0157ZM17.0108 3.45391L5.75827 10.38L17.0108 18.0764L28.2617 10.38L17.0108 3.45391Z" fill="white"/>
</svg>
