<svg width="34" height="34" viewBox="0 0 34 34" fill="none" xmlns="http://www.w3.org/2000/svg">
<path d="M11.3158 27.3531C11.3158 27.501 11.1678 27.6067 10.9565 27.6067C10.7451 27.6067 10.576 27.6067 10.576 27.3531C10.576 27.0996 10.7451 27.0996 10.9353 27.0996C11.1256 27.0996 11.3158 27.2052 11.3158 27.3531ZM9.20216 27.0362C9.20216 27.1841 9.20215 27.3531 9.49806 27.3954C9.57376 27.4317 9.66077 27.4366 9.74002 27.4088C9.81927 27.3811 9.88428 27.3231 9.92079 27.2475C9.92079 27.0996 9.92079 26.9517 9.62488 26.8883C9.32897 26.825 9.24443 26.8883 9.20216 27.0362ZM12.2035 26.9306C12.0133 26.9306 11.8865 27.0996 11.9076 27.2686C11.9288 27.4377 12.0978 27.501 12.3092 27.4588C12.5206 27.4165 12.6263 27.2686 12.6051 27.1207C12.584 26.9729 12.4149 26.9095 12.2035 26.9306ZM16.7056 0.140855C14.4765 0.119884 12.2661 0.549282 10.2071 1.40328C8.14805 2.25728 6.28287 3.51827 4.72343 5.11059C3.164 6.70291 1.94247 8.59374 1.13213 10.6696C0.321799 12.7455 -0.0606284 14.9636 0.00779913 17.1908C-0.0512028 20.8393 1.03129 24.4151 3.10408 27.4188C5.17686 30.4226 8.13644 32.7041 11.5694 33.9449C12.436 34.0928 12.7531 33.5435 12.7531 33.0998V28.8743C12.7531 28.8743 7.97624 29.9307 6.96169 26.7616C6.96169 26.7616 6.20078 24.6488 5.08055 24.2051C5.08055 24.2051 3.51645 23.1065 5.18623 23.1276C5.73312 23.2013 6.25511 23.4022 6.71028 23.7141C7.16546 24.026 7.54113 24.4402 7.80715 24.9235C8.0283 25.3568 8.33571 25.7404 8.71049 26.0507C9.08528 26.361 9.51955 26.5914 9.98665 26.7279C10.4537 26.8645 10.9438 26.9041 11.4268 26.8445C11.9098 26.7849 12.3755 26.6273 12.7954 26.3813C12.8753 25.4992 13.2559 24.6714 13.8733 24.0361C10.0687 23.5924 6.22192 23.0431 6.22192 16.3034C6.18151 15.5421 6.30388 14.7808 6.58087 14.0704C6.85785 13.36 7.2831 12.7168 7.82828 12.1836C7.31392 10.637 7.37395 8.95696 7.99738 7.45099C9.43466 6.98618 12.7108 9.33134 12.7108 9.33134C15.5096 8.5423 18.4722 8.5423 21.2711 9.33134C21.2711 9.33134 24.5472 6.98618 25.9845 7.45099C26.6214 8.954 26.6816 10.639 26.1536 12.1836C26.718 12.7095 27.1657 13.3479 27.4679 14.0575C27.7701 14.7672 27.92 15.5323 27.9079 16.3034C27.9079 23.0642 23.892 23.5924 20.0874 24.0361C20.4698 24.4648 20.7607 24.967 20.9424 25.5119C21.1242 26.0567 21.1928 26.6329 21.1442 27.2052V33.0576C21.1429 33.2003 21.1759 33.3412 21.2407 33.4683C21.3054 33.5955 21.3998 33.7052 21.516 33.7882C21.6321 33.8711 21.7666 33.9248 21.9079 33.9447C22.0492 33.9647 22.1933 33.9503 22.3279 33.9027C25.7546 32.6726 28.7081 30.3976 30.7713 27.3989C32.8345 24.4002 33.9031 20.8294 33.8261 17.1908C33.846 14.9409 33.4163 12.7096 32.5621 10.6279C31.708 8.5462 30.4466 6.6559 28.852 5.06787C27.2574 3.47983 25.3616 2.22602 23.2759 1.37997C21.1901 0.533915 18.9564 0.112643 16.7056 0.140855ZM6.64464 24.2474V24.6066C6.66821 24.6302 6.69621 24.649 6.72704 24.6617C6.75787 24.6745 6.79092 24.6811 6.8243 24.6811C6.85769 24.6811 6.89074 24.6745 6.92157 24.6617C6.9524 24.649 6.9804 24.6302 7.00396 24.6066C7.00396 24.6066 7.00396 24.3742 7.00396 24.2263C7.00396 24.0784 6.72919 24.1629 6.64464 24.2474ZM5.90487 23.677C5.90487 23.677 5.90487 23.8882 6.05282 23.9516C6.07066 23.9737 6.0932 23.9915 6.1188 24.0037C6.1444 24.0159 6.17241 24.0222 6.20078 24.0222C6.22915 24.0222 6.25716 24.0159 6.28276 24.0037C6.30836 23.9915 6.3309 23.9737 6.34873 23.9516C6.34873 23.9516 6.34873 23.7403 6.20078 23.677C6.05282 23.6136 5.94714 23.6136 5.90487 23.677ZM8.01851 26.17V26.6137C8.01851 26.7616 8.37783 26.7827 8.46238 26.6137C8.54692 26.4447 8.46238 26.3179 8.46238 26.17C8.46238 26.0221 8.1876 26.0644 8.10306 26.17H8.01851ZM7.23646 25.1348V25.5573C7.23646 25.7263 7.53237 25.7897 7.63806 25.7263C7.69159 25.6648 7.72107 25.586 7.72107 25.5045C7.72107 25.4229 7.69159 25.3442 7.63806 25.2826C7.53237 25.1136 7.36328 25.0502 7.23646 25.1348Z" fill="white"/>
</svg>
