<svg width="34" height="35" viewBox="0 0 34 35" fill="none" xmlns="http://www.w3.org/2000/svg">
<path fill-rule="evenodd" clip-rule="evenodd" d="M0.0927739 3.05077C0.0927739 2.30118 0.390548 1.58229 0.92059 1.05225C1.45063 0.522204 2.16952 0.22443 2.91912 0.22443H31.0934C31.4648 0.223823 31.8328 0.296492 32.1761 0.438277C32.5195 0.580061 32.8315 0.788176 33.0943 1.05071C33.3571 1.31324 33.5656 1.62503 33.7077 1.96823C33.8499 2.31143 33.923 2.6793 33.9228 3.05077V31.225C33.9232 31.5966 33.8503 31.9645 33.7084 32.3079C33.5664 32.6513 33.3582 32.9633 33.0955 33.2261C32.8328 33.4889 32.521 33.6973 32.1777 33.8394C31.8344 33.9816 31.4664 34.0546 31.0949 34.0544H2.91912C2.54783 34.0544 2.18017 33.9813 1.83717 33.8391C1.49416 33.697 1.18252 33.4887 0.920047 33.2261C0.657576 32.9635 0.449421 32.6517 0.307475 32.3086C0.165528 31.9655 0.0925718 31.5978 0.0927739 31.2265V3.05077ZM13.4833 13.1229H18.0642V15.4233C18.7254 14.1009 20.4169 12.9107 22.9588 12.9107C27.8318 12.9107 28.9867 15.5448 28.9867 20.3779V29.3305H24.0552V21.4789C24.0552 18.7264 23.394 17.1733 21.7148 17.1733C19.3851 17.1733 18.4163 18.8478 18.4163 21.4789V29.3305H13.4833V13.1229ZM5.0258 29.1199H9.95883V12.9107H5.0258V29.1199ZM10.6646 7.62397C10.674 8.04634 10.5988 8.46632 10.4436 8.85925C10.2884 9.25218 10.0562 9.61016 9.76082 9.91216C9.46539 10.2142 9.11262 10.4541 8.7232 10.6179C8.33378 10.7818 7.91556 10.8661 7.49309 10.8661C7.07061 10.8661 6.65239 10.7818 6.26297 10.6179C5.87355 10.4541 5.52078 10.2142 5.22535 9.91216C4.92992 9.61016 4.69779 9.25218 4.54259 8.85925C4.38738 8.46632 4.31222 8.04634 4.32152 7.62397C4.33978 6.79491 4.68194 6.00596 5.27474 5.42608C5.86753 4.84619 6.66383 4.52148 7.49309 4.52148C8.32235 4.52148 9.11864 4.84619 9.71143 5.42608C10.3042 6.00596 10.6464 6.79491 10.6646 7.62397Z" fill="white"/>
</svg>
