<svg width="24" height="24" viewBox="0 0 24 24" fill="none" xmlns="http://www.w3.org/2000/svg">
<path d="M8.96033 1.52353C9.0457 1.33155 9.07341 1.1189 9.04008 0.911464C9.00675 0.704027 8.91381 0.510758 8.7726 0.355194C8.63139 0.19963 8.44799 0.0884849 8.24474 0.0352939C8.04148 -0.0178972 7.82715 -0.0108386 7.62783 0.05561C6.05483 0.579943 4.80033 1.61236 3.64983 2.76286C2.49327 3.91084 1.57533 5.27636 0.948913 6.78072C0.3225 8.28508 0 9.89854 0 11.5281C0 13.1577 0.3225 14.7711 0.948913 16.2755C1.57533 17.7799 2.49327 19.1454 3.64983 20.2934C8.54433 25.1889 16.119 24.9094 20.9572 20.0713C22.1077 18.9208 23.139 17.6663 23.6633 16.0922C23.7277 15.8987 23.736 15.6909 23.6876 15.4929C23.6391 15.2948 23.5357 15.1144 23.3892 14.9725C23.2428 14.8306 23.0593 14.7329 22.8598 14.6907C22.6603 14.6484 22.4529 14.6633 22.2615 14.7337C18.3723 16.1659 13.9469 15.5289 10.9591 12.5399C7.9615 9.54236 7.35267 5.13969 8.96033 1.52353Z" fill="white"/>
</svg>
