<svg width="24" height="24" viewBox="0 0 24 24" fill="none" xmlns="http://www.w3.org/2000/svg">
<path d="M11.86 4.744C11.5591 4.744 11.2706 4.62448 11.0578 4.41173C10.8451 4.19898 10.7256 3.91044 10.7256 3.60957V1.13443C10.7256 0.833564 10.8451 0.545016 11.0578 0.332268C11.2706 0.11952 11.5591 0 11.86 0C12.1609 0 12.4494 0.11952 12.6622 0.332268C12.8749 0.545016 12.9944 0.833564 12.9944 1.13443V3.60957C12.9944 3.91044 12.8749 4.19898 12.6622 4.41173C12.4494 4.62448 12.1609 4.744 11.86 4.744ZM11.86 23.72C11.5591 23.72 11.2706 23.6005 11.0578 23.3877C10.8451 23.175 10.7256 22.8864 10.7256 22.5856V20.1104C10.7256 19.8096 10.8451 19.521 11.0578 19.3083C11.2706 19.0955 11.5591 18.976 11.86 18.976C12.1609 18.976 12.4494 19.0955 12.6622 19.3083C12.8749 19.521 12.9944 19.8096 12.9944 20.1104V22.5856C12.9944 22.8864 12.8749 23.175 12.6622 23.3877C12.4494 23.6005 12.1609 23.72 11.86 23.72ZM17.6941 7.16035C17.4698 7.16032 17.2505 7.09379 17.064 6.96917C16.8775 6.84454 16.7321 6.66742 16.6462 6.46019C16.5603 6.25296 16.5378 6.02492 16.5815 5.8049C16.6252 5.58488 16.7332 5.38275 16.8917 5.22407L18.6419 3.47395C18.8555 3.26583 19.1426 3.15024 19.4409 3.1522C19.7391 3.15416 20.0246 3.27353 20.2356 3.48444C20.4465 3.69536 20.5658 3.98086 20.5678 4.27914C20.5698 4.57742 20.4542 4.86447 20.246 5.07814L18.4959 6.82827C18.3907 6.93369 18.2657 7.0173 18.1281 7.07429C17.9905 7.13128 17.843 7.16052 17.6941 7.16035ZM4.27579 20.5786C4.05141 20.5786 3.83207 20.5121 3.64553 20.3874C3.45898 20.2627 3.3136 20.0855 3.22777 19.8782C3.14194 19.6708 3.11952 19.4427 3.16334 19.2227C3.20716 19.0026 3.31525 18.8005 3.47395 18.6419L5.22407 16.8917C5.32889 16.7841 5.45405 16.6984 5.59227 16.6395C5.7305 16.5807 5.87903 16.5498 6.02926 16.5489C6.17949 16.5479 6.32842 16.5767 6.46741 16.6338C6.6064 16.6908 6.73267 16.7749 6.8389 16.8811C6.94513 16.9873 7.0292 17.1136 7.08624 17.2526C7.14327 17.3916 7.17213 17.5405 7.17114 17.6907C7.17015 17.841 7.13934 17.9895 7.08048 18.1277C7.02162 18.2659 6.93589 18.3911 6.82827 18.4959L5.07814 20.246C4.97291 20.3516 4.84785 20.4353 4.71015 20.4924C4.57246 20.5495 4.42484 20.5788 4.27579 20.5786ZM22.5856 12.9944H20.1104C19.8096 12.9944 19.521 12.8749 19.3083 12.6622C19.0955 12.4494 18.976 12.1609 18.976 11.86C18.976 11.5591 19.0955 11.2706 19.3083 11.0578C19.521 10.8451 19.8096 10.7256 20.1104 10.7256H22.5856C22.8864 10.7256 23.175 10.8451 23.3877 11.0578C23.6005 11.2706 23.72 11.5591 23.72 11.86C23.72 12.1609 23.6005 12.4494 23.3877 12.6622C23.175 12.8749 22.8864 12.9944 22.5856 12.9944ZM3.60957 12.9944H1.13443C0.833564 12.9944 0.545016 12.8749 0.332268 12.6622C0.11952 12.4494 0 12.1609 0 11.86C0 11.5591 0.11952 11.2706 0.332268 11.0578C0.545016 10.8451 0.833564 10.7256 1.13443 10.7256H3.60957C3.91044 10.7256 4.19898 10.8451 4.41173 11.0578C4.62448 11.2706 4.744 11.5591 4.744 11.86C4.744 12.1609 4.62448 12.4494 4.41173 12.6622C4.19898 12.8749 3.91044 12.9944 3.60957 12.9944ZM19.4442 20.5786C19.2952 20.5788 19.1475 20.5495 19.0098 20.4924C18.8722 20.4353 18.7471 20.3516 18.6419 20.246L16.8917 18.4959C16.6836 18.2822 16.568 17.9952 16.57 17.6969C16.5719 17.3986 16.6913 17.1131 16.9022 16.9022C17.1131 16.6913 17.3986 16.5719 17.6969 16.57C17.9952 16.568 18.2822 16.6836 18.4959 16.8917L20.246 18.6419C20.4047 18.8005 20.5128 19.0026 20.5567 19.2227C20.6005 19.4427 20.5781 19.6708 20.4922 19.8782C20.4064 20.0855 20.261 20.2627 20.0745 20.3874C19.8879 20.5121 19.6686 20.5786 19.4442 20.5786ZM6.02591 7.16035C5.87696 7.16064 5.72942 7.13144 5.5918 7.07445C5.45418 7.01746 5.3292 6.93379 5.22407 6.82827L3.47395 5.07814C3.26583 4.86447 3.15024 4.57742 3.1522 4.27914C3.15416 3.98086 3.27353 3.69536 3.48444 3.48444C3.69536 3.27353 3.98086 3.15416 4.27914 3.1522C4.57742 3.15024 4.86447 3.26583 5.07814 3.47395L6.82827 5.22407C6.98682 5.38275 7.09477 5.58488 7.13847 5.8049C7.18217 6.02492 7.15966 6.25296 7.07379 6.46019C6.98792 6.66742 6.84254 6.84454 6.65602 6.96917C6.46951 7.09379 6.25023 7.16032 6.02591 7.16035ZM11.86 17.1197C10.8197 17.1197 9.80284 16.8112 8.93789 16.2332C8.07295 15.6553 7.39881 14.8339 7.00071 13.8728C6.60262 12.9117 6.49847 11.8542 6.70141 10.8339C6.90436 9.81362 7.40529 8.87644 8.14086 8.14086C8.87644 7.40529 9.81362 6.90436 10.8339 6.70141C11.8542 6.49847 12.9117 6.60262 13.8728 7.00071C14.8339 7.39881 15.6553 8.07295 16.2332 8.93789C16.8112 9.80284 17.1197 10.8197 17.1197 11.86C17.118 13.2544 16.5633 14.5913 15.5773 15.5773C14.5913 16.5633 13.2544 17.118 11.86 17.1197Z" fill="black"/>
</svg>
