<svg width="36" height="39" viewBox="0 0 36 39" fill="none" xmlns="http://www.w3.org/2000/svg">
<path d="M11.9842 4.77081C12.7332 4.77081 15.7293 11.927 15.7293 12.7222C15.7293 14.3124 13.4822 15.9027 12.7332 17.493C11.9842 19.0832 13.4822 20.6735 14.9803 22.2638C15.5645 22.884 17.9763 25.4443 19.4743 24.6492C20.9724 23.854 22.4704 21.4686 23.9684 21.4686C24.7174 21.4686 31.4585 24.6492 31.4585 25.4443C31.4585 28.6249 29.2115 31.0103 26.9645 31.8054C24.7174 32.6005 23.2194 32.6005 20.2233 31.8054C17.2273 31.0103 14.9803 30.2151 11.2352 26.2394C7.49014 22.2638 6.74113 19.8784 5.99212 16.6978C5.24311 13.5173 5.24311 11.927 5.99212 9.54162C6.74113 7.15621 8.98817 4.77081 11.9842 4.77081Z" fill="#3364C6" stroke="#3364C6" stroke-width="2" stroke-linecap="round" stroke-linejoin="round"/>
</svg>
