<svg width="16" height="16" viewBox="0 0 16 16" fill="none" xmlns="http://www.w3.org/2000/svg">
<g clip-path="url(#clip0_285_6)">
<path d="M12 1.65C10.825 0.925 9.475 0.5 8 0.5V1.65H12Z" fill="#ED4C5C"/>
<path d="M8 2.80002H13.4C12.975 2.37502 12.5 1.97502 12 1.65002H8V2.80002Z" fill="white"/>
<path d="M8 3.94999H14.325C14.05 3.52499 13.75 3.14999 13.425 2.79999H8V3.94999Z" fill="#ED4C5C"/>
<path d="M8 5.10001H14.925C14.75 4.70001 14.55 4.30001 14.325 3.95001H8V5.10001Z" fill="white"/>
<path d="M8 6.24998H15.3C15.2 5.84998 15.075 5.47498 14.925 5.09998H8V6.24998Z" fill="#ED4C5C"/>
<path d="M8 7.42502H15.475C15.45 7.02502 15.375 6.65002 15.3 6.27502H8V7.42502Z" fill="white"/>
<path d="M15.475 7.42499H8V7.99999H0.5C0.5 8.19999 0.5 8.37499 0.525 8.57499H15.475C15.5 8.37499 15.5 8.19999 15.5 7.99999C15.5 7.79999 15.5 7.59999 15.475 7.42499Z" fill="#ED4C5C"/>
<path d="M0.700024 9.72501H15.3C15.4 9.35001 15.45 8.97501 15.475 8.57501H0.525024C0.550024 8.95001 0.600024 9.35001 0.700024 9.72501Z" fill="white"/>
<path d="M1.07501 10.875H14.925C15.075 10.5 15.2 10.125 15.3 9.72498H0.700012C0.800012 10.125 0.925012 10.5 1.07501 10.875Z" fill="#ED4C5C"/>
<path d="M1.67501 12.025H14.325C14.55 11.65 14.75 11.275 14.925 10.875H1.07501C1.25001 11.275 1.45001 11.65 1.67501 12.025Z" fill="white"/>
<path d="M2.57499 13.175H13.425C13.75 12.825 14.075 12.425 14.325 12.025H1.67499C1.92499 12.45 2.24999 12.825 2.57499 13.175Z" fill="#ED4C5C"/>
<path d="M3.97501 14.325H12.025C12.55 14 13 13.6 13.425 13.175H2.57501C3.00001 13.625 3.47501 14 3.97501 14.325Z" fill="white"/>
<path d="M7.99998 15.5C9.47498 15.5 10.85 15.075 12.025 14.325H3.97498C5.14998 15.075 6.52498 15.5 7.99998 15.5Z" fill="#ED4C5C"/>
<path d="M4 1.65C3.475 1.975 3 2.375 2.575 2.8C2.225 3.15 1.925 3.55 1.675 3.95C1.45 4.325 1.225 4.7 1.075 5.1C0.925 5.475 0.8 5.85 0.7 6.25C0.6 6.625 0.55 7 0.525 7.4C0.5 7.6 0.5 7.8 0.5 8H8V0.5C6.525 0.5 5.175 0.925 4 1.65Z" fill="#428BC1"/>
<path d="M6.24998 0.75L6.37498 1.125H6.74998L6.44998 1.375L6.54998 1.75L6.24998 1.525L5.94998 1.75L6.04998 1.375L5.74998 1.125H6.12498L6.24998 0.75ZM7.24998 2.25L7.37498 2.625H7.74998L7.44998 2.875L7.54998 3.25L7.24998 3.025L6.94998 3.25L7.04998 2.875L6.74998 2.625H7.12498L7.24998 2.25ZM5.24998 2.25L5.37498 2.625H5.74998L5.44998 2.875L5.54998 3.25L5.24998 3.025L4.94998 3.25L5.04998 2.875L4.74998 2.625H5.12498L5.24998 2.25ZM6.24998 3.75L6.37498 4.125H6.74998L6.44998 4.375L6.54998 4.75L6.24998 4.525L5.94998 4.75L6.04998 4.375L5.74998 4.125H6.12498L6.24998 3.75ZM4.24998 3.75L4.37498 4.125H4.74998L4.44998 4.375L4.54998 4.75L4.24998 4.525L3.94998 4.75L4.04998 4.375L3.74998 4.125H4.12498L4.24998 3.75ZM2.24998 3.75L2.37498 4.125H2.74998L2.44998 4.375L2.54998 4.75L2.24998 4.525L1.94998 4.75L2.04998 4.375L1.74998 4.125H2.12498L2.24998 3.75ZM7.24998 5.25L7.37498 5.625H7.74998L7.44998 5.875L7.54998 6.25L7.24998 6.025L6.94998 6.25L7.04998 5.875L6.74998 5.625H7.12498L7.24998 5.25ZM5.24998 5.25L5.37498 5.625H5.74998L5.44998 5.875L5.54998 6.25L5.24998 6.025L4.94998 6.25L5.04998 5.875L4.74998 5.625H5.12498L5.24998 5.25ZM3.24998 5.25L3.37498 5.625H3.74998L3.44998 5.875L3.54998 6.25L3.24998 6.025L2.94998 6.25L3.04998 5.875L2.74998 5.625H3.12498L3.24998 5.25ZM6.24998 6.75L6.37498 7.125H6.74998L6.44998 7.375L6.54998 7.75L6.24998 7.525L5.94998 7.75L6.04998 7.375L5.74998 7.125H6.12498L6.24998 6.75ZM4.24998 6.75L4.37498 7.125H4.74998L4.44998 7.375L4.54998 7.75L4.24998 7.525L3.94998 7.75L4.04998 7.375L3.74998 7.125H4.12498L4.24998 6.75ZM2.24998 6.75L2.37498 7.125H2.74998L2.44998 7.375L2.54998 7.75L2.24998 7.525L1.94998 7.75L2.04998 7.375L1.74998 7.125H2.12498L2.24998 6.75ZM2.94998 3.25L3.24998 3.025L3.54998 3.25L3.42498 2.875L3.72498 2.625H3.34998L3.24998 2.25L3.12498 2.625H2.77498L3.07498 2.85L2.94998 3.25ZM0.949976 6.25L1.24998 6.025L1.54998 6.25L1.42498 5.875L1.72498 5.625H1.37498L1.24998 5.25L1.12498 5.625H0.874976C0.874976 5.65 0.849976 5.675 0.849976 5.7L1.04998 5.85L0.949976 6.25Z" fill="white"/>
</g>
<defs>
<clipPath id="clip0_285_6">
<rect width="16" height="16" fill="white"/>
</clipPath>
</defs>
</svg>
